<svg xmlns="http://www.w3.org/2000/svg" viewBox="0 0 220.06 220.05"><defs><style>.cls-1{fill:#fff;}.cls-2{fill:#227aa6;}.cls-3{fill:#fefefe;}</style></defs><title>teamManage</title><g id="图层_2" data-name="图层 2"><g id="图层_1-2" data-name="图层 1"><path class="cls-1" d="M.23,201Q.23,101.5.17,2C.17.21.65,0,2.3,0Q110.12.08,217.94,0c1.67,0,2.12.24,2.12,2.05Q220,110,220.05,217.9c0,1.61-.36,2.17-2,1.95a24.54,24.54,0,0,0-3.21,0c-.47-1.14.45-1.52,1.12-2a5.43,5.43,0,0,0,2.45-4.32c.15-6.63.5-13.27-1.56-19.75-2.71-8.55-7.35-15.71-14.74-21l-1-.74c-1.94-1.47-2.11-2-.9-4.09,7.48-13.19,1-26.68-7.25-32.64-12-8.65-29.86-4-36.08,9.43-3.58,7.73-3.53,15.29.5,22.82,1.47,2.74,1.41,3-1.22,4.84a39.09,39.09,0,0,0-16.26,25.5c-1,5.08-.68,10.23-.6,15.37a5.8,5.8,0,0,0,2.51,4.53c.64.5,1.58.89,1.09,2h-66c-.48-1.14.45-1.52,1.12-2a5.31,5.31,0,0,0,2.42-4.11c.27-7.28.54-14.59-2-21.6C75.58,184.23,71,177.54,64,172.67l-.88-.61c-1.94-1.47-2.08-2-.92-4.09a24.7,24.7,0,0,0-13.08-35.7,24.3,24.3,0,0,0-26.52,6.94C16,146.8,14,157.6,19.29,167.34c1.65,3,1.58,3.15-1.24,5.17-9.11,6.54-14.39,15.43-16.34,26.41C1.56,199.8,1.82,201.09.23,201Z"/><path class="cls-2" d="M.23,201c.62-1.11.41-2.38.65-3.56,2.27-10.89,7.76-19.69,17-26,1.28-.88,1.65-1.53.81-3.08-8.76-16.07.42-35,18.44-38.23,10.85-1.93,22.76,4.68,27.1,14.85,3.45,8.1,3.34,16-1.14,23.61-.92,1.56-.11,2.12,1,2.87A40,40,0,0,1,81,197.47c1.08,5.43.73,10.95.6,16.44-.06,3-2.21,4.63-4.63,5.92h-72a4.79,4.79,0,0,1-4.71-4.72Z"/><path class="cls-2" d="M142.89,219.83c-3.9-1.85-4.88-5-4.78-9.16.15-6.43,0-12.86,2.25-19,3-8.27,7.87-15.19,15.27-20.11,1.62-1.08,1.73-1.89.8-3.58a25.86,25.86,0,0,1,19.24-38c13.18-1.82,26.16,7.84,28.48,21.06a25,25,0,0,1-3,17.33c-.79,1.36-.59,2.06.67,3,11.9,8.39,17.7,20,17.78,34.47,0,1.72-.12,3.44,0,5.14.34,4-.89,7.15-4.74,8.92Z"/><path class="cls-3" d="M.23,215.11a11.46,11.46,0,0,0,4.71,4.72c-1.57,0-3.75.61-4.54-.18S.23,216.68.23,215.11Z"/><path class="cls-2" d="M109.81,90.44q-16.49,0-33,0c-5.14,0-7.58-2.47-7.62-7.61,0-7-.27-14,2.25-20.73,3-8.17,7.84-15,15.17-19.93,1.58-1.05,1.8-1.83.86-3.57a25.81,25.81,0,0,1,19.17-38C119.88-1.28,133,8.51,135.2,21.82a25,25,0,0,1-3,17.12c-.77,1.33-.66,2.05.63,3,11.89,8.38,17.72,19.94,17.8,34.45,0,2.22,0,4.43,0,6.64,0,4.84-2.58,7.44-7.38,7.45Q126.53,90.46,109.81,90.44Z"/><path class="cls-2" d="M103.48,129c0-3.28,0-6.56,0-9.84.05-4,2.78-6.84,6.44-6.82s6.36,2.86,6.39,6.88c0,6.42.06,12.84,0,19.26a3.42,3.42,0,0,0,2,3.42c5.47,3.07,10.89,6.23,16.34,9.35,3.56,2.05,4.77,5,3.45,8.4a6.19,6.19,0,0,1-9.19,3.12c-5.41-3.05-10.81-6.11-16.1-9.34a4.79,4.79,0,0,0-5.68,0c-5.24,3.18-10.57,6.22-15.94,9.18-3.74,2-7.3,1-9.12-2.46-1.74-3.3-.56-6.72,3.08-8.82,5.25-3,10.48-6.09,15.79-9,1.92-1.05,2.81-2.3,2.65-4.56C103.33,134.83,103.48,131.9,103.48,129Z"/><path class="cls-1" d="M41,207H16.13c-3,0-3.22-.11-3-3.15.71-11,6.15-19,15.92-24.11a3.34,3.34,0,0,1,2.88-.1,25.48,25.48,0,0,0,18,0,3.65,3.65,0,0,1,2.88.06c9.16,4,16.06,14.71,16,24.74,0,2-.68,2.6-2.62,2.58C57.78,206.93,49.36,207,41,207Z"/><path class="cls-1" d="M41,168.41a12.85,12.85,0,1,1,12.79-12.83A12.9,12.9,0,0,1,41,168.41Z"/><path class="cls-1" d="M178.66,207H153.84c-2.66,0-2.92-.18-2.78-2.76.6-11.12,5.89-19.25,15.76-24.43a3.56,3.56,0,0,1,3.07-.16,25.48,25.48,0,0,0,18,0,3.34,3.34,0,0,1,2.88.09c9.78,5.09,15.21,13.06,15.93,24.11.2,3.05,0,3.16-3,3.16Z"/><path class="cls-1" d="M178.59,168.41a12.85,12.85,0,1,1,13.11-12.73A12.88,12.88,0,0,1,178.59,168.41Z"/><path class="cls-1" d="M109.68,77.59H84.86c-2.67,0-2.91-.15-2.78-2.75.57-11.25,6-19.35,16-24.52a3.31,3.31,0,0,1,2.88-.07,25.34,25.34,0,0,0,18,0,3.41,3.41,0,0,1,2.88.08c9.8,5.08,15.18,13.09,15.93,24.11.21,3,0,3.16-3,3.17Z"/><path class="cls-1" d="M109.74,39a12.85,12.85,0,1,1,13-12.86A12.91,12.91,0,0,1,109.74,39Z"/></g></g></svg>