<svg xmlns="http://www.w3.org/2000/svg" viewBox="0 0 273.51 273.47"><defs><style>.cls-1{fill:#1080b0;}.cls-2{fill:#fff;}</style></defs><title>user</title><g id="图层_2" data-name="图层 2"><g id="图层_1-2" data-name="图层 1"><path class="cls-1" d="M146.08,273.47H128c-.77-.17-1.54-.37-2.32-.51-8.28-1.44-16.73-2.22-24.8-4.42C34,250.35-10.64,183.63,2.88,111.22,7.32,87.46,17.35,66.13,33.47,48.09,68.19,9.24,111.66-5.94,162.86,3,196.64,8.9,224,26.55,245.07,53.53a130.82,130.82,0,0,1,26.35,59.69c.82,4.87,1.4,9.79,2.09,14.68V146c-.17.85-.4,1.7-.51,2.56-.63,4.75-1,9.55-1.89,14.23Q261,213.43,220.25,245.17a130.66,130.66,0,0,1-59.47,26.2C155.9,272.19,151,272.77,146.08,273.47ZM133.16,155c-4.75.6-8.79.88-12.73,1.66C86,163.51,61.93,183.21,48,215.38a2.42,2.42,0,0,0,.59,3.24c5.14,4.63,9.9,9.76,15.4,13.9,29.64,22.27,62.81,29.6,99,22a115,115,0,0,0,58.13-31.58c7.31-7.25,6.9-3.93,2.17-13.36C207.88,178.86,183,160.85,148.83,156c-2.4-.34-4.82-.54-7.23-.81,28.12-3.61,44.56-27.42,43.25-50.58a47.93,47.93,0,0,0-47.72-45.46c-23.73-.28-44.71,18.39-47.65,41.51C86.24,126.07,103.72,151.67,133.16,155Z"/><path class="cls-2" d="M273.51,127.9c-.69-4.89-1.27-9.81-2.09-14.68a130.82,130.82,0,0,0-26.35-59.69C224,26.55,196.64,8.9,162.86,3,111.66-5.94,68.19,9.24,33.47,48.09c-16.12,18-26.15,39.37-30.59,63.13-13.52,72.41,31.07,139.13,98,157.32,8.07,2.2,16.52,3,24.8,4.42.78.14,1.55.34,2.32.51H0V0H273.51Z"/><path class="cls-2" d="M146.08,273.47c4.9-.7,9.82-1.28,14.7-2.1a130.66,130.66,0,0,0,59.47-26.2q40.65-31.69,50.86-82.35c.93-4.68,1.26-9.48,1.89-14.23.11-.86.34-1.71.51-2.56V273.47Z"/><path class="cls-2" d="M133.16,155c-29.44-3.36-46.92-29-43.68-54.36,2.94-23.12,23.92-41.79,47.65-41.51a47.93,47.93,0,0,1,47.72,45.46c1.31,23.16-15.13,47-43.25,50.58,2.41.27,4.83.47,7.23.81,34.18,4.84,59,22.85,74.49,53.56,4.73,9.43,5.14,6.11-2.17,13.36A115,115,0,0,1,163,254.51c-36.23,7.61-69.4.28-99-22-5.5-4.14-10.26-9.27-15.4-13.9a2.42,2.42,0,0,1-.59-3.24c13.94-32.17,38-51.87,72.44-58.69C124.37,155.91,128.41,155.63,133.16,155Z"/></g></g></svg>