<svg xmlns="http://www.w3.org/2000/svg" viewBox="0 0 179.9 179.93"><defs><style>.cls-1{fill:none;}.cls-2{fill:#227aa6;}</style></defs><title>teamWork</title><g id="图层_2" data-name="图层 2"><g id="图层_1-2" data-name="图层 1"><path class="cls-1" d="M82.08,179.93H0V0H179.9V179.93H98.22a4.92,4.92,0,0,1,1-.32A82.33,82.33,0,0,0,139.11,164c2.66-1.92,5.16-4.09,7.85-6.25a26.27,26.27,0,1,1,25.72-45.54A83.4,83.4,0,0,0,165.49,58L147.15,68.6a66.18,66.18,0,0,1,5.52,18.59,59.5,59.5,0,0,1-.54,19.63L128,92.92l-21.08,36.57,24,13.86a63.41,63.41,0,0,1-35.57,14.91v21.67H84.88V158.26a63.32,63.32,0,0,1-35.52-14.89l24-13.88L52.28,92.93,27.93,107c-.32-3.83-.83-7.29-.88-10.76a62.49,62.49,0,0,1,6.12-27.7L15,57.94c-8.14,13.48-12,44.49-7,54.58,12.28-8.28,29.27-4.14,36.72,7.58A26.28,26.28,0,0,1,34,158a3.39,3.39,0,0,0,.37.48,84.38,84.38,0,0,0,38,19.65C75.55,178.86,78.82,179.34,82.08,179.93Zm59.86-120.4,18.38-10.67c-10.67-16.36-25.49-26.95-43.78-33.3-.35,16.93-13,27-26.07,27.18S64,32.9,63.73,15.52C45.41,21.7,31,32.82,20,48.78L38.35,59.41A63.72,63.72,0,0,1,69.19,35.94V63.72h42V36A63.05,63.05,0,0,1,141.94,59.53Zm-36-43.06a15.78,15.78,0,1,0-31.56,0,15.78,15.78,0,0,0,31.56,0Zm67.51,117.37a15.84,15.84,0,1,0-15.86,15.8A15.9,15.9,0,0,0,173.44,133.84ZM22.64,150.11A15.76,15.76,0,1,0,6.81,134.32,15.79,15.79,0,0,0,22.64,150.11Z"/><path class="cls-2" d="M82.08,179.93c-3.26-.59-6.53-1.07-9.76-1.79a84.38,84.38,0,0,1-38-19.65A3.39,3.39,0,0,1,34,158,26.28,26.28,0,0,0,44.74,120.1C37.29,108.38,20.3,104.24,8,112.52c-5.09-10.09-1.19-41.1,7-54.58L33.17,68.5a62.49,62.49,0,0,0-6.12,27.7c.05,3.47.56,6.93.88,10.76l24.35-14,21.08,36.56-24,13.88a63.32,63.32,0,0,0,35.52,14.89v21.67Z"/><path class="cls-2" d="M95.41,179.93V158.26A63.41,63.41,0,0,0,131,143.35l-24-13.86L128,92.92l24.11,13.9a59.5,59.5,0,0,0,.54-19.63,66.18,66.18,0,0,0-5.52-18.59L165.49,58a83.4,83.4,0,0,1,7.19,54.23A26.27,26.27,0,1,0,147,157.73c-2.69,2.16-5.19,4.33-7.85,6.25a82.33,82.33,0,0,1-39.93,15.63,4.92,4.92,0,0,0-1,.32Z"/><path class="cls-2" d="M141.94,59.53A63.05,63.05,0,0,0,111.19,36V63.72h-42V35.94A63.72,63.72,0,0,0,38.35,59.41L20,48.78c11-16,25.4-27.08,43.72-33.26C64,32.9,77.39,42.93,90.47,42.74s25.72-10.25,26.07-27.18c18.29,6.35,33.11,16.94,43.78,33.3Z"/><path class="cls-2" d="M105.93,16.47a15.78,15.78,0,0,1-31.56,0,15.78,15.78,0,1,1,31.56,0Z"/><path class="cls-2" d="M173.44,133.84a15.84,15.84,0,1,1-15.77-15.9A15.89,15.89,0,0,1,173.44,133.84Z"/><path class="cls-2" d="M22.64,150.11A15.76,15.76,0,1,1,38.51,134.2,15.87,15.87,0,0,1,22.64,150.11Z"/></g></g></svg>